HIERARCHY
ROOT Hips
{
	OFFSET 0.000000 0.000000 0.000000
	CHANNELS 6 Xposition Yposition Zposition Xrotation Yrotation Zrotation
	JOINT LeftUpLeg_virtual
	{
		OFFSET 0.000000 0.000000 0.000000
		CHANNELS 3 Xrotation Yrotation Zrotation
		JOINT LeftUpLeg
		{
			OFFSET 13.026900 -6.336304 -1.092800
			CHANNELS 3 Xrotation Yrotation Zrotation
			JOINT LeftLeg
			{
				OFFSET 0.524474 -46.096886 9.782700
				CHANNELS 3 Xrotation Yrotation Zrotation
				JOINT LeftFoot
				{
					OFFSET -0.524474 -53.427422 -12.948200
					CHANNELS 3 Xrotation Yrotation Zrotation
					JOINT LeftToeBase
					{
						OFFSET 0.192200 -14.009700 16.364100
						CHANNELS 3 Xrotation Yrotation Zrotation
						JOINT LeftToe_End
						{
							OFFSET -1.784700 -0.561700 9.474800
							CHANNELS 3 Xrotation Yrotation Zrotation
							End Site
							{
								OFFSET 0 0 0
							}
						}
					}
				}
			}
		}
	}
	JOINT RightUpLeg_virtual
	{
		OFFSET 0.000000 0.000000 0.000000
		CHANNELS 3 Xrotation Yrotation Zrotation
		JOINT RightUpLeg
		{
			OFFSET -12.883000 -6.336304 -1.092800
			CHANNELS 3 Xrotation Yrotation Zrotation
			JOINT RightLeg
			{
				OFFSET -0.524587 -46.096825 9.782800
				CHANNELS 3 Xrotation Yrotation Zrotation
				JOINT RightFoot
				{
					OFFSET 0.524587 -53.427383 -12.948300
					CHANNELS 3 Xrotation Yrotation Zrotation
					JOINT RightToeBase
					{
						OFFSET -0.192200 -14.009700 16.364100
						CHANNELS 3 Xrotation Yrotation Zrotation
						JOINT RightToe_End
						{
							OFFSET 1.784700 -0.561700 9.474800
							CHANNELS 3 Xrotation Yrotation Zrotation
							End Site
							{
								OFFSET 0 0 0
							}
						}
					}
				}
			}
		}
	}
	JOINT Spine_virtual
	{
		OFFSET 0.000000 0.000000 0.000000
		CHANNELS 3 Xrotation Yrotation Zrotation
		JOINT Spine
		{
			OFFSET 0.072000 7.257294 -0.789700
			CHANNELS 3 Xrotation Yrotation Zrotation
			JOINT Spine1
			{
				OFFSET 0.000000 12.508769 -0.658067
				CHANNELS 3 Xrotation Yrotation Zrotation
				JOINT Spine1_split
				{
					OFFSET 0.000000 12.508769 -0.658067
					CHANNELS 3 Xrotation Yrotation Zrotation
					JOINT Spine2
					{
						OFFSET 0.000000 12.508769 -0.658067
						CHANNELS 3 Xrotation Yrotation Zrotation
						JOINT Neck_virtual
						{
							OFFSET 0.000000 0.000000 0.000000
							CHANNELS 3 Xrotation Yrotation Zrotation
							JOINT Neck
							{
								OFFSET 0.000000 14.033295 7.520400
								CHANNELS 3 Xrotation Yrotation Zrotation
								JOINT Head
								{
									OFFSET 0.000000 8.198502 5.703100
									CHANNELS 3 Xrotation Yrotation Zrotation
									JOINT HeadTop_End
									{
										OFFSET 0.000000 17.760803 13.332701
										CHANNELS 3 Xrotation Yrotation Zrotation
										End Site
										{
											OFFSET 0 0 0
										}
									}
								}
							}
						}
						JOINT LeftShoulder_virtual
						{
							OFFSET 0.000000 0.000000 0.000000
							CHANNELS 3 Xrotation Yrotation Zrotation
							JOINT LeftShoulder
							{
								OFFSET 6.292450 5.785301 -0.669000
								CHANNELS 3 Xrotation Yrotation Zrotation
								JOINT LeftShoulder_split
								{
									OFFSET 6.292450 5.785301 -0.669000
									CHANNELS 3 Xrotation Yrotation Zrotation
									JOINT LeftArm
									{
										OFFSET 13.907140 -6.093903 1.965100
										CHANNELS 3 Xrotation Yrotation Zrotation
										JOINT LeftForeArm
										{
											OFFSET 34.140198 0.000000 0.000000
											CHANNELS 3 Xrotation Yrotation Zrotation
											JOINT LeftHand
											{
												OFFSET 40.960209 0.000000 0.000000
												CHANNELS 3 Xrotation Yrotation Zrotation
												End Site
												{
													OFFSET 0 0 0
												}
											}
										}
									}
								}
							}
						}
						JOINT RightShoulder_virtual
						{
							OFFSET 0.000000 0.000000 0.000000
							CHANNELS 3 Xrotation Yrotation Zrotation
							JOINT RightShoulder
							{
								OFFSET -6.292450 5.785301 -0.669000
								CHANNELS 3 Xrotation Yrotation Zrotation
								JOINT RightShoulder_split
								{
									OFFSET -6.292450 5.785301 -0.669000
									CHANNELS 3 Xrotation Yrotation Zrotation
									JOINT RightArm
									{
										OFFSET -13.907140 -6.093903 1.965100
										CHANNELS 3 Xrotation Yrotation Zrotation
										JOINT RightForeArm
										{
											OFFSET -34.140198 0.000000 0.000000
											CHANNELS 3 Xrotation Yrotation Zrotation
											JOINT RightHand
											{
												OFFSET -40.960209 0.000000 0.000000
												CHANNELS 3 Xrotation Yrotation Zrotation
												End Site
												{
													OFFSET 0 0 0
												}
											}
										}
									}
								}
							}
						}
					}
				}
			}
		}
	}
}
MOTION
Frames: 7
Frame Time: 0.03333333
3.851561 60.569908 -3.621620 0.000000 0.000000 0.000000 178.805787 -8.197693 171.066473 -71.652844 -28.478627 28.265003 110.893141 -16.103001 -4.111591 -24.365095 2.177138 -9.437454 -15.412807 -0.376120 0.128976 0.000000 0.000000 0.000000 178.857068 -5.966071 171.310611 -38.264847 4.939324 -29.008613 95.294813 12.442313 -0.476673 -37.820919 -8.442629 18.830622 -4.538738 -1.082577 0.816338 0.000000 0.000000 0.000000 179.281141 -6.955925 170.246030 7.691938 4.332624 -2.572136 7.586912 7.068562 -3.908252 0.535285 -3.041146 0.657702 0.000000 0.000000 0.000000 7.760377 6.546808 -3.774160 -2.663835 23.606061 6.994602 5.578752 33.641584 -24.304854 0.000000 0.000000 0.000000 8.409548 6.912351 -4.006026 1.027230 -13.614165 -10.340783 -3.252577 -1.579730 -3.710240 3.434925 2.469413 -31.749974 36.431085 -41.113224 1.052221 0.000000 0.000000 0.000000 7.919376 6.819663 -4.377635 5.115359 -18.244579 13.963196 2.353732 3.277085 -1.869495 13.037474 -13.726221 60.717165 34.417719 50.581943 -8.559533 0.000000 0.000000 0.000000 
3.847152 60.576916 -3.605892 0.000000 0.000000 0.000000 178.799107 -8.199481 171.072442 -71.659346 -28.484201 28.276852 110.890601 -16.101877 -4.098846 -24.332358 2.168220 -9.411326 -15.406154 -0.372848 0.126062 0.000000 0.000000 0.000000 178.850949 -5.983758 171.322523 -38.265442 4.930471 -29.006082 95.280340 12.440992 -0.478592 -37.829508 -8.442506 18.826710 -4.534308 -1.079250 0.816151 0.000000 0.000000 0.000000 179.268164 -6.961178 170.259718 7.684624 4.329670 -2.561823 7.576625 7.066864 -3.898761 0.513737 -3.042056 0.660494 0.000000 0.000000 0.000000 7.761923 6.547443 -3.766054 -2.616474 23.620761 6.969473 5.564743 33.648466 -24.292075 0.000000 0.000000 0.000000 8.407132 6.910863 -3.996487 1.029109 -13.629029 -10.349365 -3.262210 -1.599025 -3.717764 3.404078 2.501892 -31.745101 36.423814 -41.078079 1.038599 0.000000 0.000000 0.000000 7.907500 6.816802 -4.368612 5.119746 -18.240198 13.951648 2.362809 3.254864 -1.869747 13.020959 -13.723961 60.715819 34.403492 50.553853 -8.556270 0.000000 0.000000 0.000000 
3.837063 60.587086 -3.596073 0.000000 0.000000 0.000000 178.777483 -8.222584 171.071459 -71.697978 -28.484623 28.270372 110.878012 -16.094791 -4.085383 -24.279902 2.156322 -9.383788 -15.387854 -0.367436 0.120137 0.000000 0.000000 0.000000 178.830704 -6.017837 171.330268 -38.263181 4.913156 -29.015221 95.278509 12.442631 -0.480829 -37.830270 -8.440255 18.846881 -4.534950 -1.077177 0.810770 0.000000 0.000000 0.000000 179.243739 -6.985675 170.268051 7.675369 4.319128 -2.548544 7.564679 7.068604 -3.882599 0.515026 -3.035171 0.665197 0.000000 0.000000 0.000000 7.753657 6.552834 -3.751579 -2.526614 23.626196 6.928128 5.590020 33.657724 -24.331002 0.000000 0.000000 0.000000 8.400550 6.912798 -3.980981 1.026473 -13.668778 -10.372324 -3.269274 -1.602411 -3.725883 3.370704 2.556452 -31.746064 36.408771 -41.049430 1.023766 0.000000 0.000000 0.000000 7.890272 6.819976 -4.351434 5.129502 -18.240225 13.915313 2.377410 3.244822 -1.872453 12.983950 -13.686964 60.741255 34.376100 50.459351 -8.545778 0.000000 0.000000 0.000000 
3.826250 60.598763 -3.592613 0.000000 0.000000 0.000000 178.744807 -8.266424 171.063440 -71.771450 -28.477051 28.245320 110.857706 -16.080178 -4.073808 -24.222798 2.144680 -9.354788 -15.340547 -0.359494 0.109044 0.000000 0.000000 0.000000 178.799176 -6.064277 171.330965 -38.245757 4.891392 -29.031514 95.286945 12.445973 -0.484399 -37.832148 -8.440866 18.889079 -4.536726 -1.076184 0.801750 0.000000 0.000000 0.000000 179.210490 -7.028501 170.267450 7.668364 4.303768 -2.534119 7.555049 7.076114 -3.861747 0.533391 -3.027106 0.665330 0.000000 0.000000 0.000000 7.739568 6.564333 -3.732946 -2.405458 23.619931 6.883309 5.660300 33.675472 -24.426152 0.000000 0.000000 0.000000 8.393357 6.919094 -3.961449 1.019597 -13.729452 -10.407210 -3.274376 -1.592588 -3.726629 3.330956 2.623044 -31.750343 36.387812 -41.034865 1.010820 0.000000 0.000000 0.000000 7.873359 6.830596 -4.328681 5.143296 -18.246499 13.856911 2.393136 3.246025 -1.886465 12.927131 -13.615843 60.794517 34.333729 50.301649 -8.527403 0.000000 0.000000 0.000000 
3.814637 60.609550 -3.591713 0.000000 0.000000 0.000000 178.705356 -8.327990 171.050422 -71.883848 -28.467928 28.198101 110.834559 -16.061258 -4.059577 -24.161639 2.131037 -9.335329 -15.260275 -0.349760 0.094864 0.000000 0.000000 0.000000 178.760558 -6.120931 171.324613 -38.200073 4.865208 -29.046780 95.296746 12.447502 -0.487950 -37.847034 -8.451222 18.939228 -4.532461 -1.076745 0.791912 0.000000 0.000000 0.000000 179.171886 -7.088372 170.258871 7.665671 4.288283 -2.520121 7.550988 7.090050 -3.838032 0.548671 -3.019454 0.666850 0.000000 0.000000 0.000000 7.725630 6.582362 -3.712851 -2.266166 23.604736 6.850913 5.780294 33.706277 -24.578687 0.000000 0.000000 0.000000 8.390753 6.930444 -3.939639 1.010470 -13.802451 -10.449243 -3.269812 -1.579878 -3.719096 3.282189 2.693996 -31.755277 36.364716 -41.044799 1.004867 0.000000 0.000000 0.000000 7.862483 6.848643 -4.303546 5.159421 -18.265931 13.779467 2.398949 3.247318 -1.906879 12.853306 -13.512757 60.868904 34.279712 50.094691 -8.505689 0.000000 0.000000 0.000000 
3.804231 60.615845 -3.584927 0.000000 0.000000 0.000000 178.664143 -8.400942 171.033182 -72.031346 -28.466676 28.128556 110.810769 -16.044258 -4.036998 -24.088508 2.108937 -9.333944 -15.170381 -0.341547 0.086297 0.000000 0.000000 0.000000 178.718784 -6.188123 171.309327 -38.119016 4.835824 -29.055345 95.298576 12.445779 -0.490224 -37.883911 -8.476629 18.986381 -4.520576 -1.078542 0.783594 0.000000 0.000000 0.000000 179.131587 -7.159574 170.242410 7.669102 4.277062 -2.507831 7.555250 7.110845 -3.813767 0.553116 -3.010689 0.676460 0.000000 0.000000 0.000000 7.717518 6.605927 -3.693747 -2.122879 23.582246 6.842851 5.950591 33.751790 -24.785370 0.000000 0.000000 0.000000 8.398718 6.946400 -3.917018 1.001177 -13.877208 -10.492686 -3.259128 -1.565674 -3.707338 3.216718 2.756521 -31.757193 36.339011 -41.086286 1.009028 0.000000 0.000000 0.000000 7.862859 6.872299 -4.278792 5.175930 -18.304347 13.687222 2.402542 3.246622 -1.935568 12.767416 -13.381786 60.960982 34.220948 49.856911 -8.488330 0.000000 0.000000 0.000000 
3.798942 60.620934 -3.575069 0.000000 0.000000 0.000000 178.624801 -8.483148 171.011613 -72.204607 -28.479961 28.042076 110.787629 -16.029580 -4.008132 -24.000515 2.076157 -9.342718 -15.088306 -0.336600 0.085393 0.000000 0.000000 0.000000 178.677612 -6.265137 171.285380 -38.003576 4.802665 -29.051404 95.285346 12.437726 -0.489037 -37.939594 -8.519428 19.024170 -4.509958 -1.081476 0.778777 0.000000 0.000000 0.000000 179.091986 -7.237938 170.220800 7.677294 4.273165 -2.497943 7.570478 7.136665 -3.789623 0.548741 -2.990143 0.687044 0.000000 0.000000 0.000000 7.719809 6.632956 -3.676634 -1.987211 23.555150 6.868898 6.163938 33.810259 -25.034216 0.000000 0.000000 0.000000 8.420278 6.965341 -3.895019 0.994188 -13.945225 -10.535586 -3.246362 -1.553572 -3.694985 3.127692 2.801301 -31.750128 36.313428 -41.161988 1.027629 0.000000 0.000000 0.000000 7.877359 6.898839 -4.256410 5.192703 -18.364673 13.583221 2.410290 3.252138 -1.965424 12.681239 -13.227420 61.072922 34.161994 49.599113 -8.477885 0.000000 0.000000 0.000000 
